<svg id="图层_1" data-name="图层 1" xmlns="http://www.w3.org/2000/svg" viewBox="0 0 128 128">
  <defs>
    <style>
      .cls-1 {
        fill: #040000;
      }

      .cls-2 {
        fill: #f5ca1e;
      }
    </style>
  </defs>
  <title>未标题-1</title>
  <g>
    <path class="cls-1" d="M122.11,58.63c-3.61,2-8.77,3-13.08,3.49,6.83-5.81,13.47-12.43,16.15-20.76a52.74,52.74,0,0,0,.35-32.95,2.68,2.68,0,0,0-2.19-1.86,2.62,2.62,0,0,0-2.54,1.11c-9,12.86-21,21.06-34,23.49,3.9-7.85,8.2-16.71,7.28-26a2.67,2.67,0,0,0-2.65-2.39,2.68,2.68,0,0,0-1.9.8C75.68,17.68,64.63,20.65,51.3,20.88A51.85,51.85,0,0,0,12.72,39.51,51,51,0,0,0,.93,80.16a51.9,51.9,0,0,0,43.89,44,55.56,55.56,0,0,0,8.65.68c19,0,36-10,45.74-27.47a16.63,16.63,0,0,1,5-5.34,54,54,0,0,0,20.19-24.74,33.64,33.64,0,0,0,1.32-4.58L126,61.6a2.27,2.27,0,0,0,.09-.65,2.66,2.66,0,0,0-2.67-2.65,2.7,2.7,0,0,0-1.3.33Z"/>
    <path class="cls-2" d="M53.28,91.54a17.13,17.13,0,0,1-6.37,4,23.94,23.94,0,0,1-8.24,1.35q-5.74,0-9-2.34a7.51,7.51,0,0,1-3.28-6.48,8.81,8.81,0,0,1,3.26-7A12.45,12.45,0,0,1,38,78.33a19.78,19.78,0,0,1,6.4,1.11,27.07,27.07,0,0,1,6.47,3.29,76,76,0,0,0,2.6-7.39c.91-3,2-7,3.21-11.94A12.53,12.53,0,0,1,50.16,61a6.1,6.1,0,0,1-2.2-4.9,5.9,5.9,0,0,1,1-3.57A3.38,3.38,0,0,1,51.58,51a6.86,6.86,0,0,0,2.05,4.22,9.53,9.53,0,0,0,4.85,2.13q2-6.9,5.73-10.54a11.86,11.86,0,0,1,8.58-3.63A8.47,8.47,0,0,1,78.61,45a6.54,6.54,0,0,1,2,5.15A11.27,11.27,0,0,1,76.42,59a20.76,20.76,0,0,1-11.25,4.59,101.51,101.51,0,0,1-3.4,13.53A50,50,0,0,1,57.21,87a23,23,0,0,0,6.17,3.62,21.2,21.2,0,0,0,6.81,1.54l-1.3,4.61h-.37a24.28,24.28,0,0,1-8-1.3A26,26,0,0,1,53.28,91.54Zm-5.67-3.92a16.79,16.79,0,0,0-4.79-2.53,16,16,0,0,0-5.14-.89,7.31,7.31,0,0,0-4.1,1A3.14,3.14,0,0,0,32,88a3.09,3.09,0,0,0,1.67,2.78,9,9,0,0,0,4.64,1,12.12,12.12,0,0,0,5-1A13.92,13.92,0,0,0,47.61,87.62ZM66.5,57.12a13.62,13.62,0,0,0,6.32-3.3c1.71-1.6,2.56-3.16,2.56-4.66a2.15,2.15,0,0,0-.6-1.61A2.23,2.23,0,0,0,73.16,47q-2,0-3.77,2.63A24.32,24.32,0,0,0,66.5,57.12Z"/>
  </g>
</svg>
